<svg class="svg-icon dark:text-white text-black" style="width: 1em; height: 1em;vertical-align: middle;fill: currentColor;overflow: hidden;" viewBox="0 0 1024 1024" version="1.1"  xmlns="http://www.w3.org/2000/svg"><path d="M903.6 351.2C882.8 302 853 257.9 815.1 220s-82.1-67.7-131.3-88.5C632.9 109.9 578.8 99 523 99c-72.6 0-144 19.1-206.5 55.3-14.3 8.3-19.2 26.6-10.9 41 8.3 14.3 26.6 19.2 41 10.9C399.9 175.3 461 159 523 159c94.3 0 182.9 36.7 249.6 103.4S876 417.7 876 512c0 94.3-36.7 182.9-103.4 249.6S617.3 865 523 865c-62.1 0-123.1-16.3-176.5-47.2-14.3-8.3-32.7-3.4-41 10.9-8.3 14.3-3.4 32.7 10.9 41C379 905.9 450.4 925 523 925c55.7 0 109.8-10.9 160.8-32.5 49.2-20.8 93.3-50.6 131.3-88.5s67.7-82.1 88.5-131.3c21.5-50.9 32.5-105 32.5-160.8s-11-109.7-32.5-160.7z"  /><path d="M432 680.5c-11.7 11.7-11.7 30.7 0 42.4 5.9 5.9 13.5 8.8 21.2 8.8s15.4-2.9 21.2-8.8L664 533.4l0.2-0.2c2.5-2.5 4.4-5.2 5.8-8.2l0.6-1.2v-0.1c0.2-0.4 0.3-0.8 0.5-1.2 0-0.1 0.1-0.1 0.1-0.2 0.1-0.4 0.3-0.7 0.4-1.1 0-0.1 0.1-0.2 0.1-0.3 0.1-0.4 0.2-0.7 0.3-1.1 0-0.1 0.1-0.2 0.1-0.4 0.1-0.4 0.2-0.7 0.2-1.1 0-0.1 0.1-0.3 0.1-0.4 0.1-0.4 0.1-0.8 0.2-1.1 0-0.1 0-0.2 0.1-0.3 0.1-0.4 0.1-0.9 0.2-1.3v-0.1c0.2-2 0.2-4.1 0-6.1v-0.3c0-0.4-0.1-0.7-0.1-1.1 0-0.2-0.1-0.4-0.1-0.6 0-0.3-0.1-0.6-0.2-0.9 0-0.2-0.1-0.4-0.1-0.7-0.1-0.3-0.1-0.5-0.2-0.8-0.1-0.2-0.1-0.4-0.2-0.7-0.1-0.2-0.1-0.5-0.2-0.7-0.1-0.2-0.1-0.4-0.2-0.6-0.1-0.3-0.2-0.5-0.3-0.8-0.1-0.2-0.1-0.4-0.2-0.6-0.1-0.3-0.2-0.5-0.3-0.8-0.1-0.2-0.2-0.3-0.2-0.5-0.1-0.3-0.2-0.6-0.4-0.8-0.1-0.2-0.1-0.3-0.2-0.5-0.1-0.3-0.3-0.6-0.4-0.9-0.1-0.1-0.2-0.3-0.2-0.4-0.2-0.3-0.3-0.6-0.5-0.9-0.1-0.1-0.2-0.3-0.2-0.4-0.1-0.2-0.3-0.4-0.4-0.7 0-0.1-0.1-0.1-0.1-0.2-0.1-0.1-0.2-0.3-0.3-0.4-0.2-0.3-0.4-0.5-0.6-0.8-0.1-0.2-0.2-0.3-0.4-0.5s-0.4-0.5-0.5-0.7c-0.2-0.2-0.3-0.4-0.5-0.6-0.2-0.2-0.3-0.4-0.5-0.5-0.3-0.4-0.7-0.7-1-1.1L474.5 301c-11.7-11.7-30.7-11.7-42.4 0s-11.7 30.7 0 42.4L570.6 482H170.7c-16.6 0-30 13.4-30 30s13.4 30 30 30h399.9L432 680.5z"  /></svg>
